<?xml version="1.0" standalone="no"?>
<!DOCTYPE svg PUBLIC "-//W3C//DTD SVG 20010904//EN"
 "http://www.w3.org/TR/2001/REC-SVG-20010904/DTD/svg10.dtd">
<svg version="1.0" xmlns="http://www.w3.org/2000/svg"
 width="100.000000pt" height="55.000000pt" viewBox="0 0 100.000000 55.000000"
 preserveAspectRatio="xMidYMid meet">
<g transform="translate(0.000000,55.000000) scale(0.100000,-0.100000)"
fill="#ffffff" stroke="none">
<path d="M43 513 c-14 -5 -18 -63 -4 -63 4 0 84 -94 177 -210 92 -116 175
-210 184 -210 8 0 35 25 58 55 24 30 47 55 51 55 5 0 27 -25 51 -56 25 -34 48
-54 58 -52 14 3 328 394 353 440 13 24 -17 54 -38 37 -8 -7 -82 -100 -164
-206 -83 -106 -154 -191 -158 -189 -4 3 -20 23 -35 45 l-28 40 41 53 c25 31
41 60 39 72 -3 19 -11 21 -107 26 l-104 5 -45 53 -45 52 175 0 175 0 -4 -24
c-7 -36 22 -41 52 -8 32 34 43 71 24 83 -8 5 -120 9 -250 9 -309 0 -303 5
-171 -152 l65 -78 74 0 c40 0 73 -2 73 -5 0 -9 -134 -170 -142 -170 -4 0 -78
88 -164 195 -86 107 -161 198 -167 201 -7 4 -18 4 -24 2z"/>
</g>
</svg>
